Title                            : Hesher
Year                             : 2010
Genre                            : Drama
iMDB URL                         : http://www.imdb.com/title/tt1403177/

Complete name                    : Hesher.2010.BRRIP.720P.H264-ZEKTORM.mp4
Format                           : MPEG-4
Format profile                   : Base Media
Codec ID                         : isom
File size                        : 2.25 GiB
Duration                         : 1h 45mn
Overall bit rate                 : 3047 Kbps

Video
ID                               : 1
Format                           : AVC
Format/Info                      : Advanced Video Codec
Format profile                   : High@L4.0
Format settings, CABAC           : Yes
Format settings, ReFrames        : 9 frames
Codec ID                         : avc1
Codec ID/Info                    : Advanced Video Coding
Duration                         : 1h 45mn
Bit rate mode                    : Variable
Bit rate                         : 2647 Kbps
Width                            : 1280 pixels
Height                           : 720 pixels
Display aspect ratio             : 16/9
Frame rate mode                  : Constant
Frame rate                       : 24.000 fps
Resolution                       : 24 bits
Colorimetry                      : 4:2:0
Scan type                        : Progressive
Bits/(Pixel*Frame)               : 0.120
Stream size                      : 1.95 GiB (87%)
Title                            : Video
Writing library                  : x264

Audio
ID                               : 2
Format                           : AAC
Format/Info                      : Advanced Audio Codec
Format version                   : Version 4
Format profile                   : LC
Format settings, SBR             : No
Codec ID                         : 40
Duration                         : 1h 45mn
Bit rate mode                    : Variable
Bit rate                         : 396 Kbps
Maximum bit rate                 : 585 Kbps
Channel(s)                       : 6 channels
Channel positions                : Front: L C R, Rear: L R, LFE
Sampling rate                    : 48.0 KHz
Resolution                       : 16 bits
Stream size                      : 299 MiB (13%)
Language                         : English


Screenshots:

[img]http://img4.imageshack.us/img4/1572/snaph1.png[/img]

[img]http://img820.imageshack.us/img820/8751/snaph2.png[/img]

[img]http://img842.imageshack.us/img842/6018/snaph3.png[/img]

[img]http://img153.imageshack.us/img153/2186/snaph4.png[/img]
